<svg class="hidden">
  <symbol viewBox="0 0 24 24" id="account">
    <path d="M12,19.2C9.5,19.2 7.29,17.92 6,16C6.03,14 10,12.9 12,12.9C14,12.9 17.97,14 18,16C16.71,17.92 14.5,19.2 12,19.2M12,5A3,3 0 0,1 15,8A3,3 0 0,1 12,11A3,3 0 0,1 9,8A3,3 0 0,1 12,5M12,2A10,10 0 0,0 2,12A10,10 0 0,0 12,22A10,10 0 0,0 22,12C22,6.47 17.5,2 12,2Z" />
  </symbol>
  <symbol viewBox="0 0 24 24" id="bag">
    <path d="M22 19H2V21H22V19M4 15C4 15.5 4.2 16 4.6 16.4C5 16.8 5.5 17 6 17V6C5.5 6 5 6.2 4.6 6.6C4.2 7 4 7.5 4 8V15M13.5 6H10.5C10.5 5.6 10.6 5.2 10.9 4.9C11.2 4.6 11.5 4.5 12 4.5C12.4 4.5 12.8 4.6 13.1 4.9C13.3 5.2 13.5 5.6 13.5 6M7 6V17H17V6H15C15 5.2 14.7 4.5 14.1 3.9S12.8 3 12 3C11.2 3 10.5 3.3 9.9 3.9C9.3 4.5 9 5.2 9 6H7M18 17C18.5 17 19 16.8 19.4 16.4C19.8 16 20 15.5 20 15V8C20 7.5 19.8 7 19.4 6.6C19 6.2 18.5 6 18 6V17Z" />
  </symbol>
  <symbol viewBox="0 0 24 24" id="calc">
    <path d="M7,2H17A2,2 0 0,1 19,4V20A2,2 0 0,1 17,22H7A2,2 0 0,1 5,20V4A2,2 0 0,1 7,2M7,4V8H17V4H7M7,10V12H9V10H7M11,10V12H13V10H11M15,10V12H17V10H15M7,14V16H9V14H7M11,14V16H13V14H11M15,14V16H17V14H15M7,18V20H9V18H7M11,18V20H13V18H11M15,18V20H17V18H15Z" />
  </symbol>
  <symbol viewBox="0 0 24 24" id="contacts">
    <path d="M15,12H17A5,5 0 0,0 12,7V9A3,3 0 0,1 15,12M19,12H21C21,7 16.97,3 12,3V5C15.86,5 19,8.13 19,12M20,15.5C18.75,15.5 17.55,15.3 16.43,14.93C16.08,14.82 15.69,14.9 15.41,15.18L13.21,17.38C10.38,15.94 8.06,13.62 6.62,10.79L8.82,8.59C9.1,8.31 9.18,7.92 9.07,7.57C8.7,6.45 8.5,5.25 8.5,4A1,1 0 0,0 7.5,3H4A1,1 0 0,0 3,4A17,17 0 0,0 20,21A1,1 0 0,0 21,20V16.5A1,1 0 0,0 20,15.5Z" />
  </symbol>
  <symbol viewBox="0 0 24 24" id="github">
    <path d="M12,2A10,10 0 0,0 2,12C2,16.42 4.87,20.17 8.84,21.5C9.34,21.58 9.5,21.27 9.5,21C9.5,20.77 9.5,20.14 9.5,19.31C6.73,19.91 6.14,17.97 6.14,17.97C5.68,16.81 5.03,16.5 5.03,16.5C4.12,15.88 5.1,15.9 5.1,15.9C6.1,15.97 6.63,16.93 6.63,16.93C7.5,18.45 8.97,18 9.54,17.76C9.63,17.11 9.89,16.67 10.17,16.42C7.95,16.17 5.62,15.31 5.62,11.5C5.62,10.39 6,9.5 6.65,8.79C6.55,8.54 6.2,7.5 6.75,6.15C6.75,6.15 7.59,5.88 9.5,7.17C10.29,6.95 11.15,6.84 12,6.84C12.85,6.84 13.71,6.95 14.5,7.17C16.41,5.88 17.25,6.15 17.25,6.15C17.8,7.5 17.45,8.54 17.35,8.79C18,9.5 18.38,10.39 18.38,11.5C18.38,15.32 16.04,16.16 13.81,16.41C14.17,16.72 14.5,17.33 14.5,18.26C14.5,19.6 14.5,20.68 14.5,21C14.5,21.27 14.66,21.59 15.17,21.5C19.14,20.16 22,16.42 22,12A10,10 0 0,0 12,2Z" />
  </symbol>
  <symbol viewBox="0 0 24 24" id="vk">
    <path d="M15.07 2H8.93C3.33 2 2 3.33 2 8.93V15.07C2 20.67 3.33 22 8.93 22H15.07C20.67 22 22 20.67 22 15.07V8.93C22 3.33 20.67 2 15.07 2M18.15 16.27H16.69C16.14 16.27 15.97 15.82 15 14.83C14.12 14 13.74 13.88 13.53 13.88C13.24 13.88 13.15 13.96 13.15 14.38V15.69C13.15 16.04 13.04 16.26 12.11 16.26C10.57 16.26 8.86 15.32 7.66 13.59C5.85 11.05 5.36 9.13 5.36 8.75C5.36 8.54 5.43 8.34 5.85 8.34H7.32C7.69 8.34 7.83 8.5 7.97 8.9C8.69 11 9.89 12.8 10.38 12.8C10.57 12.8 10.65 12.71 10.65 12.25V10.1C10.6 9.12 10.07 9.03 10.07 8.68C10.07 8.5 10.21 8.34 10.44 8.34H12.73C13.04 8.34 13.15 8.5 13.15 8.88V11.77C13.15 12.08 13.28 12.19 13.38 12.19C13.56 12.19 13.72 12.08 14.05 11.74C15.1 10.57 15.85 8.76 15.85 8.76C15.95 8.55 16.11 8.35 16.5 8.35H17.93C18.37 8.35 18.47 8.58 18.37 8.89C18.19 9.74 16.41 12.25 16.43 12.25C16.27 12.5 16.21 12.61 16.43 12.9C16.58 13.11 17.09 13.55 17.43 13.94C18.05 14.65 18.53 15.24 18.66 15.65C18.77 16.06 18.57 16.27 18.15 16.27Z" />
  </symbol>
  <symbol viewBox="0 0 24 24" id="telegram">
    <path d="M9.78 18.65l.28-4.23l7.68-6.92c.34-.31-.07-.46-.52-.19L7.74 13.3L3.64 12c-.88-.25-.89-.86.2-1.3l15.97-6.16c.73-.33 1.43.18 1.15 1.3l-2.72 12.81c-.19.91-.74 1.13-1.5.71L12.6 16.3l-1.99 1.93c-.23.23-.42.42-.83.42z" />
  </symbol>
  <symbol viewBox="0 0 24 24" id="viber">
    <path d="M11.4 0C9.473.028 5.333.344 3.02 2.467 1.302 4.187.696 6.7.633 9.817.57 12.933.488 18.776 6.12 20.36h.003l-.004 2.416s-.037.977.61 1.177c.777.242 1.234-.5 1.98-1.302.407-.44.972-1.084 1.397-1.58 3.85.326 6.812-.416 7.15-.525.776-.252 5.176-.816 5.892-6.657.74-6.02-.36-9.83-2.34-11.546-.596-.55-3.006-2.3-8.375-2.323 0 0-.395-.025-1.037-.017zm.058 1.693c.545-.004.88.017.88.017 4.542.02 6.717 1.388 7.222 1.846 1.675 1.435 2.53 4.868 1.906 9.897v.002c-.604 4.878-4.174 5.184-4.832 5.395-.28.09-2.882.737-6.153.524 0 0-2.436 2.94-3.197 3.704-.12.12-.26.167-.352.144-.13-.033-.166-.188-.165-.414l.02-4.018c-4.762-1.32-4.485-6.292-4.43-8.895.054-2.604.543-4.738 1.996-6.173 1.96-1.773 5.474-2.018 7.11-2.03zm.38 2.602c-.167 0-.303.135-.304.302 0 .167.133.303.3.305 1.624.01 2.946.537 4.028 1.592 1.073 1.046 1.62 2.468 1.633 4.334.002.167.14.3.307.3.166-.002.3-.138.3-.304-.014-1.984-.618-3.596-1.816-4.764-1.19-1.16-2.692-1.753-4.447-1.765zm-3.96.695c-.19-.032-.4.005-.616.117l-.01.002c-.43.247-.816.562-1.146.932-.002.004-.006.004-.008.008-.267.323-.42.638-.46.948-.008.046-.01.093-.007.14 0 .136.022.27.065.4l.013.01c.135.48.473 1.276 1.205 2.604.42.768.903 1.5 1.446 2.186.27.344.56.673.87.984l.132.132c.31.308.64.6.984.87.686.543 1.418 1.027 2.186 1.447 1.328.733 2.126 1.07 2.604 1.206l.01.014c.13.042.265.064.402.063.046.002.092 0 .138-.008.31-.036.627-.19.948-.46.004 0 .003-.002.008-.005.37-.33.683-.72.93-1.148l.003-.01c.225-.432.15-.842-.18-1.12-.004 0-.698-.58-1.037-.83-.36-.255-.73-.492-1.113-.71-.51-.285-1.032-.106-1.248.174l-.447.564c-.23.283-.657.246-.657.246-3.12-.796-3.955-3.955-3.955-3.955s-.037-.426.248-.656l.563-.448c.277-.215.456-.737.17-1.248-.217-.383-.454-.756-.71-1.115-.25-.34-.826-1.033-.83-1.035-.137-.165-.31-.265-.502-.297zm4.49.88c-.158.002-.29.124-.3.282-.01.167.115.312.282.324 1.16.085 2.017.466 2.645 1.15.63.688.93 1.524.906 2.57-.002.168.13.306.3.31.166.003.305-.13.31-.297.025-1.175-.334-2.193-1.067-2.994-.74-.81-1.777-1.253-3.05-1.346h-.024zm.463 1.63c-.16.002-.29.127-.3.287-.008.167.12.31.288.32.523.028.875.175 1.113.422.24.245.388.62.416 1.164.01.167.15.295.318.287.167-.008.295-.15.287-.317-.03-.644-.215-1.178-.58-1.557-.367-.378-.893-.574-1.52-.607h-.018z" />
  </symbol>
  <symbol viewBox="0 0 24 24" id="mail">
    <path d="M20,8L12,13L4,8V6L12,11L20,6M20,4H4C2.89,4 2,4.89 2,6V18A2,2 0 0,0 4,20H20A2,2 0 0,0 22,18V6C22,4.89 21.1,4 20,4Z" />
  </symbol>
</svg>